<?xml version="1.0" encoding="UTF-8"?>
<svg width="47px" height="47px" viewBox="0 0 47 47" version="1.1" xmlns="http://www.w3.org/2000/svg" xmlns:xlink="http://www.w3.org/1999/xlink">
    <title>Group 28</title>
    <g id="⚡️-PRODUCTEURS" stroke="none" stroke-width="1" fill="none" fill-rule="evenodd">
        <g id="PROD---Limitations-détails-ORDRE-0.4" transform="translate(-180.000000, -231.000000)">
            <g id="Group-24" transform="translate(150.000000, 201.000000)">
                <g id="Group-18" transform="translate(0.000000, 11.000000)">
                    <g id="Group-28" transform="translate(30.000000, 19.000000)">
                        <path d="M47,23.5 C47,36.4786916 36.4786916,47 23.5,47 C18.1240499,47 13.7659813,42.6419314 13.7659813,37.2659813 C13.7659813,34.684359 14.7915267,32.2084733 16.6170094,30.3829906 L30.3829906,16.6170094 C34.1843614,12.8156386 40.3476012,12.8156386 44.1489719,16.6170094 C45.9744545,18.442492 47,20.9183777 47,23.5 Z" id="Rectangle" fill="#01A7DD" opacity="0.100823539"></path>
                        <g id="Group" transform="translate(5.000000, 5.000000)" stroke="#01A7DD" stroke-width="1.5">
                            <g id="Combined-Shape">
                                <path d="M16,0.75 C20.2202205,0.75 24.043531,2.29551692 26.8100689,4.80269189 C29.54856,7.28444945 31.25,10.7107748 31.25,14.5 C31.25,18.2892252 29.54856,21.7155505 26.8100689,24.1973081 C24.043531,26.7044831 20.2202205,28.25 16,28.25 C14.7164786,28.25 13.4698054,28.1070809 12.2783668,27.8376017 C10.3154078,28.5643542 9.12383215,29.0790982 8.22665942,29.4302267 C7.30904639,29.7893548 6.08370967,30.2183796 4.55080589,30.717525 C5.24962328,29.3264864 5.77407544,27.9862648 6.12609981,26.6976421 C6.21603638,26.3684197 6.29656088,26.0359068 6.36766627,25.7001018 C2.82971487,22.4345036 0.75,18.6896289 0.75,14.5 C0.75,10.7107748 2.45143996,7.28444945 5.18993107,4.80269189 C7.95646896,2.29551692 11.7797795,0.75 16,0.75 Z"></path>
                            </g>
                        </g>
                    </g>
                </g>
            </g>
        </g>
    </g>
</svg>