<?xml version="1.0" encoding="UTF-8"?>
<svg width="47px" height="47px" viewBox="0 0 47 47" version="1.1" xmlns="http://www.w3.org/2000/svg" xmlns:xlink="http://www.w3.org/1999/xlink">
    <title>Group 29</title>
    <g id="⚡️-PRODUCTEURS" stroke="none" stroke-width="1" fill="none" fill-rule="evenodd">
        <g id="PROD---Limitations-détails-ORDRE-0.4" transform="translate(-181.000000, -355.000000)">
            <g id="Group-24" transform="translate(150.000000, 201.000000)">
                <g id="Group-23" transform="translate(31.000000, 148.000000)">
                    <g id="Group-29" transform="translate(0.000000, 6.000000)">
                        <path d="M47,23.5 C47,36.4786916 36.4786916,47 23.5,47 C18.1240499,47 13.7659813,42.6419314 13.7659813,37.2659813 C13.7659813,34.684359 14.7915267,32.2084733 16.6170094,30.3829906 L30.3829906,16.6170094 C34.1843614,12.8156386 40.3476012,12.8156386 44.1489719,16.6170094 C45.9744545,18.442492 47,20.9183777 47,23.5 Z" id="Rectangle" fill="#01A7DD" opacity="0.100823539"></path>
                        <g id="Group" transform="translate(5.000000, 5.000000)" stroke="#01A7DD">
                            <path d="M23.0434857,13.1894528 C22.896848,12.9626283 22.6450136,12.8278026 22.3756465,12.8278026 L16.7970379,12.8278026 L16.7970379,4.10378365 C16.7970379,3.72944393 16.5340464,3.40586214 16.1658582,3.32813906 C15.7912945,3.2488298 15.4247002,3.44075821 15.2716869,3.78178804 L8.89613423,18.0574554 C8.78615594,18.3017279 8.81006427,18.5872413 8.95670198,18.8108934 C9.10333969,19.0361317 9.35517402,19.1725436 9.62454112,19.1725436 L15.2031497,19.1725436 L15.2031497,27.8965625 C15.2031497,28.2709023 15.4661413,28.5944841 15.8343295,28.6722071 C15.8901155,28.6833104 15.9459016,28.6896552 16.0000938,28.6896552 C16.3093081,28.6896552 16.5978019,28.5104162 16.7285007,28.2185582 L23.1040534,13.9428908 C23.2124378,13.6970321 23.1917173,13.4146911 23.0434857,13.1894528 Z" id="Path" stroke-width="1.3" fill-rule="nonzero"></path>
                            <circle id="Oval" stroke-width="1.5" cx="16" cy="16" r="15.25"></circle>
                            <line x1="5.5" y1="26.5" x2="26.5" y2="5.5" id="Path-8" stroke-width="1.3" stroke-linecap="round"></line>
                        </g>
                    </g>
                </g>
            </g>
        </g>
    </g>
</svg>