<?xml version="1.0" encoding="UTF-8"?>
<svg width="47px" height="47px" viewBox="0 0 47 47" version="1.1" xmlns="http://www.w3.org/2000/svg" xmlns:xlink="http://www.w3.org/1999/xlink">
    <title>Group 30</title>
    <g id="⚡️-PRODUCTEURS" stroke="none" stroke-width="1" fill="none" fill-rule="evenodd">
        <g id="PROD---Limitations-détails-ORDRE-0.4" transform="translate(-181.000000, -478.000000)">
            <g id="Group-24" transform="translate(150.000000, 201.000000)">
                <g id="Group-30" transform="translate(31.000000, 277.000000)">
                    <path d="M47,23.5 C47,36.4786916 36.4786916,47 23.5,47 C18.1240499,47 13.7659813,42.6419314 13.7659813,37.2659813 C13.7659813,34.684359 14.7915267,32.2084733 16.6170094,30.3829906 L30.3829906,16.6170094 C34.1843614,12.8156386 40.3476012,12.8156386 44.1489719,16.6170094 C45.9744545,18.442492 47,20.9183777 47,23.5 Z" id="Rectangle" fill="#01A7DD" opacity="0.100823539"></path>
                    <g id="Group" transform="translate(16.000000, 5.000000)" fill-rule="nonzero" stroke="#01A7DD" stroke-width="1.5">
                        <g id="Icons/energy">
                            <path d="M17.1315438,12.4562666 C16.9548311,12.1702705 16.6513462,12.0002728 16.3267326,12.0002728 L9.60396572,12.0002728 L9.60396572,1.00042286 C9.60396572,0.528429302 9.28703528,0.120434867 8.84333267,0.022436204 C8.39194689,-0.0775624319 7.95016507,0.164434267 7.76576918,0.594428402 L0.0826070436,18.5941829 C-0.0499275032,18.9021787 -0.0211156452,19.2621738 0.155597084,19.5441699 C0.332309813,19.828166 0.635794717,20.0001637 0.960408318,20.0001637 L7.68317519,20.0001637 L7.68317519,31.0000136 C7.68317519,31.4720072 8.00010562,31.8800016 8.44380824,31.9780003 C8.51103591,31.9920001 8.57826358,32 8.64357045,32 C9.01620382,32 9.3638669,31.7740031 9.52137173,31.4060081 L17.2045339,13.4062536 C17.3351476,13.0962579 17.3101773,12.7402627 17.1315438,12.4562666 Z" id="Path"></path>
                        </g>
                    </g>
                </g>
            </g>
        </g>
    </g>
</svg>