<?xml version="1.0" encoding="UTF-8"?>
<svg width="19px" height="19px" viewBox="0 0 19 19" version="1.1" xmlns="http://www.w3.org/2000/svg" xmlns:xlink="http://www.w3.org/1999/xlink">
    <title>Action/Action Sent Copy 4</title>
    <g id="⚡️-PRODUCTEURS" stroke="none" stroke-width="1" fill="none" fill-rule="evenodd">
        <g id="PROD---Limitations-détails-ORDRE-0.4" transform="translate(-1224.000000, -1527.000000)" fill="#ED4A4A">
            <g id="Group-24" transform="translate(150.000000, 201.000000)">
                <g id="Group-19" transform="translate(0.000000, 400.000000)">
                    <g id="Group-3" transform="translate(60.000000, 721.000000)">
                        <g id="Combined-Shape" transform="translate(1011.000000, 202.000000)">
                            <path d="M12.5,3 C17.7467051,3 22,7.25329488 22,12.5 C22,17.7467051 17.7467051,22 12.5,22 C7.25329488,22 3,17.7467051 3,12.5 C3,7.25329488 7.25329488,3 12.5,3 Z M9.28727571,7.53488065 C8.80336518,7.05097011 8.01879118,7.05097011 7.53488065,7.53488065 C7.05097011,8.01879118 7.05097011,8.80336518 7.53488065,9.28727571 L7.53488065,9.28727571 L10.7477894,12.4989547 L7.53488065,15.7127243 C7.05097011,16.1966348 7.05097011,16.9812088 7.53488065,17.4651194 C8.01879118,17.9490299 8.80336518,17.9490299 9.28727571,17.4651194 L9.28727571,17.4651194 L12.5,14.2511653 L15.7127243,17.4651194 C16.1966348,17.9490299 16.9812088,17.9490299 17.4651194,17.4651194 C17.9490299,16.9812088 17.9490299,16.1966348 17.4651194,15.7127243 L17.4651194,15.7127243 L14.2522106,12.4989547 L17.4651194,9.28727571 C17.9490299,8.80336518 17.9490299,8.01879118 17.4651194,7.53488065 C16.9812088,7.05097011 16.1966348,7.05097011 15.7127243,7.53488065 L15.7127243,7.53488065 L12.5,10.7467441 Z"></path>
                        </g>
                    </g>
                </g>
            </g>
        </g>
    </g>
</svg>