<?xml version="1.0" encoding="UTF-8"?>
<svg width="23px" height="23px" viewBox="0 0 23 23" version="1.1" xmlns="http://www.w3.org/2000/svg" xmlns:xlink="http://www.w3.org/1999/xlink">
    <title>Action/Action en cours Copy</title>
    <g id="⚡️-PRODUCTEURS" stroke="none" stroke-width="1" fill="none" fill-rule="evenodd">
        <g id="PROD---Limitations-détails-ORDRE-0.4" transform="translate(-1086.000000, -1454.000000)" fill="#01A7DD">
            <g id="Group-24" transform="translate(150.000000, 201.000000)">
                <g id="Group-19" transform="translate(0.000000, 400.000000)">
                    <g id="Group-3" transform="translate(60.000000, 721.000000)">
                        <g id="Group" transform="translate(875.000000, 131.000000)">
                            <path d="M12.5,1 C18.8512746,1 24,6.14872538 24,12.5 C24,18.8512746 18.8512746,24 12.5,24 C6.14872538,24 1,18.8512746 1,12.5 C1,6.14872538 6.14872538,1 12.5,1 Z M12.5,3 C7.25329488,3 3,7.25329488 3,12.5 C3,17.7467051 7.25329488,22 12.5,22 C17.7467051,22 22,17.7467051 22,12.5 C22,7.25329488 17.7467051,3 12.5,3 Z" id="Combined-Shape"></path>
                            <path d="M13.1721342,5.79506041 L12.5,10.5 L12.5,10.5 L16.6783268,10.5 C17.2306116,10.5 17.6783268,10.9477153 17.6783268,11.5 C17.6783268,11.690184 17.6240935,11.8764246 17.5219883,12.0368755 L12.7446713,19.544088 C12.5964172,19.7770587 12.2873735,19.8457351 12.0544028,19.697481 C11.8887103,19.5920403 11.8000911,19.3993626 11.8278658,19.2049396 L12.5,14.5 L12.5,14.5 L8.32167316,14.5 C7.76938841,14.5 7.32167316,14.0522847 7.32167316,13.5 C7.32167316,13.309816 7.37590654,13.1235754 7.47801168,12.9631245 L12.2553287,5.45591199 C12.4035828,5.2229413 12.7126265,5.15426491 12.9455972,5.30251899 C13.1112897,5.40795966 13.1999089,5.60063741 13.1721342,5.79506041 Z" id="Path-4"></path>
                        </g>
                    </g>
                </g>
            </g>
        </g>
    </g>
</svg>