<?xml version="1.0" encoding="UTF-8"?>
<svg width="25px" height="25px" viewBox="0 0 25 25" version="1.1" xmlns="http://www.w3.org/2000/svg" xmlns:xlink="http://www.w3.org/1999/xlink">
    <title>Action/Action Notification Copy</title>
    <g id="⚡️-PRODUCTEURS" stroke="none" stroke-width="1" fill="none" fill-rule="evenodd">
        <g id="PROD---Limitations-détails-ORDRE-0.4" transform="translate(-1085.000000, -1523.000000)">
            <g id="Group-24" transform="translate(150.000000, 201.000000)">
                <g id="Group-19" transform="translate(0.000000, 400.000000)">
                    <g id="Group-3" transform="translate(60.000000, 721.000000)">
                        <g id="Combined-Shape" transform="translate(875.000000, 201.000000)">
                            <path d="M11.5,2 C12.5679804,2 13.6019586,2.14558095 14.5831724,2.41798065 C14.2090247,3.20011981 14,4.07564973 14,5 C14,8.3137085 16.6862915,11 20,11 C20.9243503,11 21.7998802,10.7909753 22.5819012,10.4176144 C22.8544191,11.3980414 23,12.4320196 23,13.5 C23,19.8512746 17.8512746,25 11.5,25 C5.14872538,25 0,19.8512746 0,13.5 C0,7.14872538 5.14872538,2 11.5,2 Z M11.9455972,6.30251899 C11.7126265,6.15426491 11.4035828,6.2229413 11.2553287,6.45591199 L11.2553287,6.45591199 L6.47801168,13.9631245 C6.37590654,14.1235754 6.32167316,14.309816 6.32167316,14.5 C6.32167316,15.0522847 6.76938841,15.5 7.32167316,15.5 L7.32167316,15.5 L11.5,15.5 L10.8278658,20.2049396 C10.8000911,20.3993626 10.8887103,20.5920403 11.0544028,20.697481 C11.2873735,20.8457351 11.5964172,20.7770587 11.7446713,20.544088 L11.7446713,20.544088 L16.5219883,13.0368755 C16.6240935,12.8764246 16.6783268,12.690184 16.6783268,12.5 C16.6783268,11.9477153 16.2306116,11.5 15.6783268,11.5 L15.6783268,11.5 L11.5,11.5 L12.1721342,6.79506041 C12.1999089,6.60063741 12.1112897,6.40795966 11.9455972,6.30251899 Z" fill="#6F7072"></path>
                            <path d="M20,0 C22.7614237,0 25,2.23857625 25,5 C25,7.76142375 22.7614237,10 20,10 C17.2385763,10 15,7.76142375 15,5 C15,2.23857625 17.2385763,0 20,0 Z M18.5955339,2.51487373 C18.3026407,2.22198052 17.827767,2.22198052 17.5348737,2.51487373 C17.2419805,2.80776695 17.2419805,3.28264069 17.5348737,3.57553391 L17.5348737,3.57553391 L18.9490873,4.98974747 L17.5348737,6.40396103 C17.2419805,6.69685425 17.2419805,7.17172798 17.5348737,7.4646212 C17.827767,7.75751442 18.3026407,7.75751442 18.5955339,7.4646212 L18.5955339,7.4646212 L20.0097475,6.05040764 L21.423961,7.4646212 C21.7168542,7.75751442 22.191728,7.75751442 22.4846212,7.4646212 C22.7775144,7.17172798 22.7775144,6.69685425 22.4846212,6.40396103 L22.4846212,6.40396103 L21.0704076,4.98974747 L22.4846212,3.57553391 C22.7775144,3.28264069 22.7775144,2.80776695 22.4846212,2.51487373 C22.191728,2.22198052 21.7168542,2.22198052 21.423961,2.51487373 L21.423961,2.51487373 L20.0097475,3.9290873 Z" fill="#ED4A4A"></path>
                        </g>
                    </g>
                </g>
            </g>
        </g>
    </g>
</svg>