<?xml version="1.0" encoding="UTF-8"?>
<svg width="19px" height="19px" viewBox="0 0 19 19" version="1.1" xmlns="http://www.w3.org/2000/svg" xmlns:xlink="http://www.w3.org/1999/xlink">
    <title>Action/Action Sent Copy 3</title>
    <g id="⚡️-PRODUCTEURS" stroke="none" stroke-width="1" fill="none" fill-rule="evenodd">
        <g id="PROD---Limitations-détails-ORDRE-0.4" transform="translate(-1224.000000, -1385.000000)" fill="#29D894">
            <g id="Group-24" transform="translate(150.000000, 201.000000)">
                <g id="Group-19" transform="translate(0.000000, 400.000000)">
                    <g id="Group-3" transform="translate(60.000000, 721.000000)">
                        <g id="Combined-Shape" transform="translate(1011.000000, 60.000000)">
                            <path d="M12.5,3 C17.7467051,3 22,7.25329488 22,12.5 C22,17.7467051 17.7467051,22 12.5,22 C7.25329488,22 3,17.7467051 3,12.5 C3,7.25329488 7.25329488,3 12.5,3 Z M18.7885822,9.37867966 C18.2027958,8.79289322 17.2530483,8.79289322 16.6672619,9.37867966 L16.6672619,9.37867966 L11.363961,14.6819805 L8.18198052,11.5 C7.59619408,10.9142136 6.64644661,10.9142136 6.06066017,11.5 C5.47487373,12.0857864 5.47487373,13.0355339 6.06066017,13.6213203 L6.06066017,13.6213203 L10.3033009,17.863961 C10.8890873,18.4497475 11.8388348,18.4497475 12.4246212,17.863961 L12.4246212,17.863961 L18.7885822,11.5 C19.3743687,10.9142136 19.3743687,9.96446609 18.7885822,9.37867966 Z"></path>
                        </g>
                    </g>
                </g>
            </g>
        </g>
    </g>
</svg>