<?xml version="1.0" encoding="UTF-8"?>
<svg width="23px" height="23px" viewBox="0 0 23 23" version="1.1" xmlns="http://www.w3.org/2000/svg" xmlns:xlink="http://www.w3.org/1999/xlink">
    <title>Action/Action sent No Copy 4</title>
    <g id="⚡️-PRODUCTEURS" stroke="none" stroke-width="1" fill="none" fill-rule="evenodd">
        <g id="PROD---Limitations-détails-ORDRE-0.4" transform="translate(-661.000000, -1596.000000)" fill="#6F7072">
            <g id="Group-24" transform="translate(150.000000, 201.000000)">
                <g id="Group-19" transform="translate(0.000000, 400.000000)">
                    <g id="Group-3" transform="translate(60.000000, 721.000000)">
                        <g id="Combined-Shape" transform="translate(450.000000, 273.000000)">
                            <path d="M12.5,1 C18.8512746,1 24,6.14872538 24,12.5 C24,18.8512746 18.8512746,24 12.5,24 C6.14872538,24 1,18.8512746 1,12.5 C1,6.14872538 6.14872538,1 12.5,1 Z M18,6 C17.4477153,6 17,6.44771525 17,7 L17,7 L17,18 C17,18.5522847 17.4477153,19 18,19 C18.5522847,19 19,18.5522847 19,18 L19,18 L19,7 C19,6.44771525 18.5522847,6 18,6 Z M12.2071068,8.25735931 C11.8165825,7.86683502 11.1834175,7.86683502 10.7928932,8.25735931 C10.4023689,8.6478836 10.4023689,9.28104858 10.7928932,9.67157288 L10.7928932,9.67157288 L12.621,11.5 L5,11.5 C4.44771525,11.5 4,11.9477153 4,12.5 C4,13.0522847 4.44771525,13.5 5,13.5 L5,13.5 L12.621,13.5 L10.7928932,15.3284271 C10.4023689,15.7189514 10.4023689,16.3521164 10.7928932,16.7426407 C11.1834175,17.133165 11.8165825,17.133165 12.2071068,16.7426407 L12.2071068,16.7426407 L15.7426407,13.2071068 C16.133165,12.8165825 16.133165,12.1834175 15.7426407,11.7928932 L15.7426407,11.7928932 Z"></path>
                        </g>
                    </g>
                </g>
            </g>
        </g>
    </g>
</svg>