<?xml version="1.0" encoding="UTF-8"?>
<svg width="18px" height="20px" viewBox="0 0 18 20" version="1.1" xmlns="http://www.w3.org/2000/svg" xmlns:xlink="http://www.w3.org/1999/xlink">
    <title>icons/histo</title>
    <g id="Symbols" stroke="none" stroke-width="1" fill="none" fill-rule="evenodd">
        <g id="Menu/activations-reduced-GRT" transform="translate(-40.000000, -377.000000)" fill="#01A7DD" fill-rule="nonzero">
            <g id="Group-2" transform="translate(40.000000, 377.000000)">
                <g id="Group">
                    <path d="M9.73677549,0.237800875 C10.0562954,-0.0792669583 10.5743394,-0.0792669583 10.8938593,0.237800875 C11.2133792,0.554868708 11.2133792,1.06893724 10.8938593,1.38600507 L10.8938593,1.38600507 L10.0827302,2.20210085 C14.5427757,2.73276336 18,6.50027469 18,11.0690673 C18,16.0014852 13.9705627,20 9,20 C4.02943725,20 0,16.0014852 0,11.0690673 C0,7.35284008 2.30867534,4.06525266 5.74155535,2.74167803 C6.16274933,2.57928328 6.63685957,2.78646122 6.80051019,3.2044229 C6.96416082,3.62238458 6.75538067,4.09285642 6.33418668,4.25525117 C3.52543603,5.33818769 1.63636364,8.02825438 1.63636364,11.0690673 C1.63636364,15.104682 4.93317593,18.3761941 9,18.3761941 C13.0668241,18.3761941 16.3636364,15.104682 16.3636364,11.0690673 C16.3636364,7.52830006 13.8257651,4.57573556 10.4566314,3.90488599 L10.8486202,4.23925716 C11.1681401,4.55632499 11.1681401,5.07039352 10.8486202,5.38746136 C10.5291003,5.70452919 10.0110563,5.70452919 9.6915364,5.38746136 L9.6915364,5.38746136 L7.60327627,3.52413968 C7.28375639,3.20707185 7.28375639,2.69300332 7.60327627,2.37593549 L7.60327627,2.37593549 Z" id="Combined-Shape"></path>
                </g>
                <path d="M8.66815035,6.42136782 C8.91235787,6.08704593 9.38154791,6.01384834 9.71611563,6.25787641 C10.0135092,6.47479025 10.1044306,6.86933744 9.94944904,7.18914159 L9.87972726,7.30507164 L7.68459211,10.3248533 L11.9205083,10.3261865 C12.4691876,10.3261865 12.8177732,10.8875478 12.6118819,11.3672815 L12.5543645,11.4762476 L9.4586599,16.2211336 C9.23724515,16.5709455 8.77396594,16.6751639 8.42389683,16.4539118 C8.11272429,16.2572433 7.99574366,15.8696125 8.12909625,15.5402162 L8.1909475,15.4199091 L10.5578952,11.8237511 L6.21009211,11.8250843 C5.64035792,11.8250843 5.29445852,11.2248914 5.53757718,10.7426494 L5.60430365,10.6337834 L8.66815035,6.42136782 Z" id="Path-3"></path>
            </g>
        </g>
    </g>
</svg>