<?xml version="1.0" encoding="UTF-8"?>
<svg width="18px" height="18px" viewBox="0 0 18 18" version="1.1" xmlns="http://www.w3.org/2000/svg" xmlns:xlink="http://www.w3.org/1999/xlink">
    <title>Path</title>
    <g id="Symbols" stroke="none" stroke-width="1" fill="none" fill-rule="evenodd">
        <g id="Menu/home-expanded-GRT" transform="translate(-40.000000, -241.000000)" stroke="#01A7DD" stroke-width="2">
            <g id="M---Bouton-Header" transform="translate(40.000000, 238.983607)">
                <g id="A---Icon-Header" transform="translate(0.000000, 2.016393)">
                    <path d="M9,1.52326453 C9.21499244,1.52326453 9.42998488,1.59238987 9.60971076,1.73064054 L9.60971076,1.73064054 L16.6097108,7.11525593 C16.8557959,7.30455223 17,7.59741091 17,7.90787992 L17,7.90787992 L17,16 C17,16.2761424 16.8880712,16.5261424 16.7071068,16.7071068 C16.5261424,16.8880712 16.2761424,17 16,17 L16,17 L2,17 C1.72385763,17 1.47385763,16.8880712 1.29289322,16.7071068 C1.11192881,16.5261424 1,16.2761424 1,16 L1,16 L1,7.90787992 C1,7.59741091 1.14420405,7.30455223 1.39028924,7.11525593 L1.39028924,7.11525593 L8.39028924,1.73064054 C8.57001512,1.59238987 8.78500756,1.52326453 9,1.52326453 Z" id="Path"></path>
                </g>
            </g>
        </g>
    </g>
</svg>