<?xml version="1.0" encoding="UTF-8"?>
<svg width="18px" height="19px" viewBox="0 0 18 19" version="1.1" xmlns="http://www.w3.org/2000/svg" xmlns:xlink="http://www.w3.org/1999/xlink">
    <title>A - Icon Header</title>
    <g id="Symbols" stroke="none" stroke-width="1" fill="none" fill-rule="evenodd">
        <g id="Menu/reseau-reduced-GRT" transform="translate(-40.000000, -309.000000)" fill="#01A7DD" fill-rule="nonzero">
            <g id="Group" transform="translate(40.000000, 309.483607)">
                <g id="Group" transform="translate(9.000000, 9.000000) rotate(90.000000) translate(-9.000000, -9.000000) ">
                    <path d="M9,0 C10.5294039,0 11.7692308,1.23982685 11.7692308,2.76923077 C11.7692308,3.9820914 10.9895112,5.01283876 9.9039908,5.38755414 L9.903,11.917 L12.9777461,7.1489605 C12.6834413,6.73797286 12.4987984,6.24311277 12.4665924,5.70715535 L12.4615385,5.53846154 C12.4615385,4.00905762 13.7013653,2.76923077 15.2307692,2.76923077 C16.7601732,2.76923077 18,4.00905762 18,5.53846154 C18,7.06786546 16.7601732,8.30769231 15.2307692,8.30769231 C14.9583701,8.30769231 14.695157,8.26836193 14.446499,8.19507012 L11.0845922,13.4077703 C11.5108904,13.8948429 11.7692308,14.5326368 11.7692308,15.2307692 C11.7692308,16.7601732 10.5294039,18 9,18 C7.47059608,18 6.23076923,16.7601732 6.23076923,15.2307692 C6.23076923,14.5759025 6.45808129,13.9741274 6.83810694,13.5000423 L3.43687106,8.22667682 C3.22304374,8.27960723 2.99941706,8.30769231 2.76923077,8.30769231 C1.23982685,8.30769231 0,7.06786546 0,5.53846154 C0,4.00905762 1.23982685,2.76923077 2.76923077,2.76923077 C4.29863469,2.76923077 5.53846154,4.00905762 5.53846154,5.53846154 C5.53846154,6.18365723 5.31781376,6.77731787 4.94786025,7.24810142 L8.103,12.142 L8.10297185,5.38994717 C7.06458281,5.03461224 6.3044206,4.07949209 6.23582312,2.93792459 L6.23076923,2.76923077 C6.23076923,1.23982685 7.47059608,0 9,0 Z M8.94903873,13.9934274 C8.26080697,13.9934274 7.70288489,14.5513495 7.70288489,15.2395812 C7.70288489,15.927813 8.26080697,16.4857351 8.94903873,16.4857351 C9.6372705,16.4857351 10.1951926,15.927813 10.1951926,15.2395812 C10.1951926,14.5513495 9.6372705,13.9934274 8.94903873,13.9934274 Z M2.7182695,4.30111969 C2.03003774,4.30111969 1.47211566,4.85904177 1.47211566,5.54727353 C1.47211566,6.2355053 2.03003774,6.79342738 2.7182695,6.79342738 C3.40650127,6.79342738 3.96442335,6.2355053 3.96442335,5.54727353 C3.96442335,4.85904177 3.40650127,4.30111969 2.7182695,4.30111969 Z M15.179808,4.30111969 C14.4915762,4.30111969 13.9336541,4.85904177 13.9336541,5.54727353 C13.9336541,6.2355053 14.4915762,6.79342738 15.179808,6.79342738 C15.8680397,6.79342738 16.4259618,6.2355053 16.4259618,5.54727353 C16.4259618,4.85904177 15.8680397,4.30111969 15.179808,4.30111969 Z M8.94903873,1.53188892 C8.26080697,1.53188892 7.70288489,2.089811 7.70288489,2.77804277 C7.70288489,3.46627453 8.26080697,4.02419661 8.94903873,4.02419661 C9.6372705,4.02419661 10.1951926,3.46627453 10.1951926,2.77804277 C10.1951926,2.089811 9.6372705,1.53188892 8.94903873,1.53188892 Z" id="Combined-Shape"></path>
                </g>
            </g>
        </g>
    </g>
</svg>