<?xml version="1.0" encoding="UTF-8"?>
<svg width="23px" height="24px" viewBox="0 0 23 24" version="1.1" xmlns="http://www.w3.org/2000/svg" xmlns:xlink="http://www.w3.org/1999/xlink">
    <title>icon/image/calendar/32</title>
    <defs>
        <path d="M21.4375,2.53846154 L17.8125,2.53846154 L17.8125,1.65625 C17.8125,1.15574195 17.4067581,0.75 16.90625,0.75 C16.4057419,0.75 16,1.15574195 16,1.65625 L16,2.53846154 L16,2.53846154 L8.75,2.53846154 L8.75,1.65625 C8.75,1.15574195 8.34425805,0.75 7.84375,0.75 C7.34324195,0.75 6.9375,1.15574195 6.9375,1.65625 L6.9375,2.53846154 L6.9375,2.53846154 L3.3125,2.53846154 C2.31148389,2.53846154 1.5,3.33918304 1.5,4.32692308 L1.5,22.2115385 C1.5,23.1992785 2.31148389,24 3.3125,24 L21.4375,24 C22.4385161,24 23.25,23.1992785 23.25,22.2115385 L23.25,4.32692308 C23.25,3.33918304 22.4385161,2.53846154 21.4375,2.53846154 Z M21.4375,22.2115385 L3.3125,22.2115385 L3.3125,9.69230769 L21.4375,9.69230769 L21.4375,22.2115385 Z M21.4375,7.90384615 L3.3125,7.90384615 L3.3125,4.32692308 L6.9375,4.32692308 L6.9375,5.20913462 C6.9375,5.70964267 7.34324195,6.11538462 7.84375,6.11538462 C8.34425805,6.11538462 8.75,5.70964267 8.75,5.20913462 L8.75,4.32692308 L8.75,4.32692308 L16,4.32692308 L16,5.20913462 C16,5.70964267 16.4057419,6.11538462 16.90625,6.11538462 C17.4067581,6.11538462 17.8125,5.70964267 17.8125,5.20913462 L17.8125,4.32692308 L17.8125,4.32692308 L21.4375,4.32692308 L21.4375,7.90384615 Z" id="path-1"></path>
    </defs>
    <g id="🗺-USER-JOURNEY-⎇" stroke="none" stroke-width="1" fill="none" fill-rule="evenodd">
        <g id="GRT---Notif-center-select" transform="translate(-863.000000, -237.000000)">
            <g id="Group-17" transform="translate(150.000000, 219.000000)">
                <g id="icon/image/calendar/32" transform="translate(712.000000, 18.000000)">
                    <mask id="mask-2" fill="white">
                        <use xlink:href="#path-1"></use>
                    </mask>
                    <use id="icon-color" fill="#6F7072" xlink:href="#path-1"></use>
                </g>
            </g>
        </g>
    </g>
</svg>