<?xml version="1.0" encoding="UTF-8"?>
<svg width="32px" height="32px" viewBox="0 0 32 32" version="1.1" xmlns="http://www.w3.org/2000/svg" xmlns:xlink="http://www.w3.org/1999/xlink">
    <title>Icons/comment</title>
    <g id="🗺-USER-JOURNEY-⎇" stroke="none" stroke-width="1" fill="none" fill-rule="evenodd">
        <g id="GRT---Notif-center-select" transform="translate(-1078.000000, -134.000000)" fill="#6F7072">
            <g id="Group-5-Copy-3" transform="translate(900.000000, 99.000000)">
                <g id="Combined-Shape" transform="translate(178.000000, 35.000000)">
                    <path d="M16,0 C24.836556,0 32,6.4470996 32,14.4 C32,22.3529004 24.836556,28.8 16,28.8 C14.8204903,28.8 13.6707905,28.6851314 12.5639581,28.4671457 C10.9945722,29.1844099 9.74013074,29.726677 8.8,30.094618 C7.5178947,30.5963983 5.65122804,31.2315256 3.2,32 C4.34755859,30.0358521 5.16298984,28.1691854 5.64629375,26.4 C5.72421417,26.114764 5.7948859,25.8269941 5.85830892,25.5366904 C2.28133458,22.8965784 0,18.8880646 0,14.4 C0,6.4470996 7.163444,0 16,0 Z"></path>
                </g>
            </g>
        </g>
    </g>
</svg>