<?xml version="1.0" encoding="UTF-8"?>
<svg width="19px" height="19px" viewBox="0 0 19 19" version="1.1" xmlns="http://www.w3.org/2000/svg" xmlns:xlink="http://www.w3.org/1999/xlink">
    <title>A - Icon Header 2 Copy 2</title>
    <defs>
        <path d="M1.61855402,17.662892 L17.381446,17.662892 C17.7506782,17.662892 18.05,17.9622138 18.05,18.331446 C18.05,18.7006782 17.7506782,19 17.381446,19 L1.61855402,19 C1.24932183,19 0.95,18.7006782 0.95,18.331446 C0.95,17.9622138 1.24932183,17.662892 1.61855402,17.662892 Z M15.6915812,5.62891963 C16.2047646,5.10661882 16.2047646,4.26048283 15.6915812,3.73818201 L13.3330965,1.3407473 C12.8190119,0.819750898 11.9871616,0.819750898 11.4730769,1.3407473 L1.60769231,11.3690576 L1.60769231,13.8295376 C1.60769231,14.8389442 2.42597803,15.6572299 3.43538462,15.6572299 L5.82619654,15.6572299 L5.82619654,15.6572299 L15.6915812,5.62891963 Z M12.4024619,2.28548099 L14.7615385,4.6835174 L12.7884615,6.68917945 L10.4295165,4.29127675 L12.4024619,2.28548099 Z M2.92307692,14.3201219 L2.92307692,11.922754 L9.49953962,5.23674585 L11.8584188,7.63458169 L5.28149577,14.3201219 L2.92307692,14.3201219 Z" id="path-1"></path>
    </defs>
    <g id="🗺-USER-JOURNEY-⎇" stroke="none" stroke-width="1" fill="none" fill-rule="evenodd">
        <g id="GRT---Notif-center-select" transform="translate(-1190.000000, -438.000000)">
            <g id="Group-8" transform="translate(149.500000, 388.000000)">
                <g id="Group-22" transform="translate(993.500000, 39.858411)">
                    <g id="A---Icon-Header-2-Copy-2" transform="translate(47.000000, 10.000000)">
                        <mask id="mask-2" fill="white">
                            <use xlink:href="#path-1"></use>
                        </mask>
                        <use id="icon-color" fill="#FFFFFF" xlink:href="#path-1"></use>
                    </g>
                </g>
            </g>
        </g>
    </g>
</svg>