<?xml version="1.0" encoding="UTF-8"?>
<svg width="28px" height="28px" viewBox="0 0 28 28" version="1.1" xmlns="http://www.w3.org/2000/svg" xmlns:xlink="http://www.w3.org/1999/xlink">
    <title>Icons/Settings/16</title>
    <g id="🗺-USER-JOURNEY-⎇" stroke="none" stroke-width="1" fill="none" fill-rule="evenodd">
        <g id="GRT---Notif-center-select" transform="translate(-658.000000, -37.000000)" fill="#484848">
            <g id="Group-11" transform="translate(630.000000, 26.000000)">
                <g id="Icons/Settings/16" transform="translate(26.000000, 9.000000)">
                    <path d="M27,16.76 C27,16.51 27,16.26 27,16 C27,15.74 27,15.49 27,15.23 L28.92,13.55 C29.6507207,12.9059413 29.8111871,11.8291273 29.3,11 L26.94,7 C26.583101,6.38183192 25.9237984,6.00073215 25.21,6 C24.9926501,5.99833487 24.7764821,6.03211111 24.57,6.1 L22.14,6.92 C21.72046,6.64120738 21.2828258,6.39065341 20.83,6.17 L20.32,3.65 C20.131263,2.69976845 19.2886161,2.02143764 18.32,2.04 L13.64,2.04 C12.6713839,2.02143764 11.828737,2.69976845 11.64,3.65 L11.13,6.17 C10.6739331,6.39060003 10.2329691,6.64114777 9.81,6.92 L7.43,6.06 C7.22129713,6.00562357 7.00517298,5.98536193 6.79,6 C6.07620161,6.00073215 5.41689901,6.38183192 5.06,7 L2.7,11 C2.21860048,11.8270136 2.39046424,12.8791552 3.11,13.51 L5,15.24 C5,15.49 5,15.74 5,16 C5,16.26 5,16.51 5,16.77 L3.11,18.45 C2.36925068,19.0859911 2.19594561,20.163864 2.7,21 L5.06,25 C5.41689901,25.6181681 6.07620161,25.9992679 6.79,26 C7.00734993,26.0016651 7.22351789,25.9678889 7.43,25.9 L9.86,25.08 C10.27954,25.3587926 10.7171742,25.6093466 11.17,25.83 L11.68,28.35 C11.868737,29.3002315 12.7113839,29.9785624 13.68,29.96 L18.4,29.96 C19.3686161,29.9785624 20.211263,29.3002315 20.4,28.35 L20.91,25.83 C21.3660669,25.6094 21.8070309,25.3588522 22.23,25.08 L24.65,25.9 C24.8564821,25.9678889 25.0726501,26.0016651 25.29,26 C26.0037984,25.9992679 26.663101,25.6181681 27.02,25 L29.3,21 C29.7813995,20.1729864 29.6095358,19.1208448 28.89,18.49 L27,16.76 Z M25.21,24 L21.78,22.84 C20.9770646,23.5201081 20.0593969,24.0517459 19.07,24.41 L18.36,28 L13.64,28 L12.93,24.45 C11.9484216,24.0815778 11.0357179,23.5508575 10.23,22.88 L6.79,24 L4.43,20 L7.15,17.6 C6.9650969,16.564859 6.9650969,15.505141 7.15,14.47 L4.43,12 L6.79,8 L10.22,9.16 C11.0229354,8.47989191 11.9406031,7.94825414 12.93,7.59 L13.64,4 L18.36,4 L19.07,7.55 C20.0515784,7.91842221 20.9642821,8.44914254 21.77,9.12 L25.21,8 L27.57,12 L24.85,14.4 C25.0349031,15.435141 25.0349031,16.494859 24.85,17.53 L27.57,20 L25.21,24 Z M16,22 C12.6862915,22 10,19.3137085 10,16 C10,12.6862915 12.6862915,10 16,10 C19.3137085,10 22,12.6862915 22,16 C22.0162065,17.596212 21.389271,19.1317699 20.2605204,20.2605204 C19.1317699,21.389271 17.596212,22.0162065 16,22 Z M16,12 C14.9316991,11.9751134 13.8997597,12.3885442 13.144152,13.144152 C12.3885442,13.8997597 11.9751134,14.9316991 12,16 C11.9751134,17.0683009 12.3885442,18.1002403 13.144152,18.855848 C13.8997597,19.6114558 14.9316991,20.0248866 16,20 C17.0683009,20.0248866 18.1002403,19.6114558 18.855848,18.855848 C19.6114558,18.1002403 20.0248866,17.0683009 20,16 C20.0248866,14.9316991 19.6114558,13.8997597 18.855848,13.144152 C18.1002403,12.3885442 17.0683009,11.9751134 16,12 Z" id="Fill"></path>
                </g>
            </g>
        </g>
    </g>
</svg>