<?xml version="1.0" encoding="UTF-8"?>
<svg width="22px" height="22px" viewBox="0 0 22 22" version="1.1" xmlns="http://www.w3.org/2000/svg" xmlns:xlink="http://www.w3.org/1999/xlink">
    <title>Contact Add Copy 2</title>
    <g id="Symbols" stroke="none" stroke-width="1" fill="none" fill-rule="evenodd">
        <g id="icons/add" fill="#01A7DD">
            <path d="M11,0 C17.0751322,0 22,4.92486775 22,11 C22,17.0751322 17.0751322,22 11,22 C4.92486775,22 0,17.0751322 0,11 C0,4.92486775 4.92486775,0 11,0 Z M11,2 C6.02943725,2 2,6.02943725 2,11 C2,15.9705627 6.02943725,20 11,20 C15.9705627,20 20,15.9705627 20,11 C20,6.02943725 15.9705627,2 11,2 Z M11,5 C11.5522847,5 12,5.44371665 12,5.99980749 L12,10 L16.0001925,10 C16.5129296,10 16.9355196,10.3827202 16.9932736,10.8826674 L17,11 C17,11.5522847 16.5562834,12 16.0001925,12 L12,12 L12,16.0001925 C12,16.5129296 11.6172798,16.9355196 11.1173326,16.9932736 L11,17 C10.4477153,17 10,16.5562834 10,16.0001925 L10,12 L5.99980749,12 C5.48707038,12 5.06448042,11.6172798 5.00672644,11.1173326 L5,11 C5,10.4477153 5.44371665,10 5.99980749,10 L10,10 L10,5.99980749 C10,5.48707038 10.3827202,5.06448042 10.8826674,5.00672644 L11,5 Z" id="Contact-Add-Copy-2"></path>
        </g>
    </g>
</svg>