<?xml version="1.0" encoding="UTF-8"?>
<svg width="31px" height="33px" viewBox="0 0 31 33" version="1.1" xmlns="http://www.w3.org/2000/svg" xmlns:xlink="http://www.w3.org/1999/xlink">
    <title>Group</title>
    <g id="Symbols" stroke="none" stroke-width="1" fill="none" fill-rule="evenodd">
        <g id="Icons/notif_number/ON" transform="translate(0.000000, 9.000000)">
            <g id="Group" transform="translate(-0.000000, -9.000000)">
                <path d="M9.98308,28 L2.43708,28.003 C2.20208,27.985 2.06708,27.95 1.99808,27.926 C2.02008,27.462 2.70908,26.237 3.17408,25.411 C4.17708,23.631 5.31308,21.613 5.31308,19.593 C5.31308,18.001 5.65108,12.6712566 9.98308,12.6622566 C14.31508,12.6712566 14.65208,18.001 14.65208,19.593 C14.65208,21.613 15.78908,23.631 16.79208,25.411 C17.25708,26.238 17.94808,27.465 17.96908,27.927 C17.90508,27.952 17.78908,27.984 17.60408,28 L9.98308,28 Z M13.023215,31 C13.566215,31 14.023215,31.43 14.023215,32 C14.023215,32.57 13.566215,33 13.023215,33 C9.3534552,33 7.33921579,33 6.98049671,33 C6.4424181,33 6,32.5227414 6,32 C6,31.4772586 6.4424181,31 6.98049671,31 C7.33921579,31 9.3534552,31 13.023215,31 Z M16.66508,19.59303 C16.66508,15.7290412 15.28408,12.7854816 12.98308,11.4914854 C11.4230087,10.7330841 8.40164551,10.7330841 6.97308,11.4974853 C4.67808,12.7944816 3.30108,15.7340411 3.30108,19.59303 C3.30108,21.0920257 2.30008,22.8680206 1.41708,24.435016 C0.38508,26.2690108 -0.41192,27.7180066 0.23108,28.9060032 C0.58208,29.5540013 1.25908,29.9210002 2.36208,30 L17.67908,29.997 C18.70708,29.9210002 19.38408,29.5540013 19.73508,28.9060032 C20.37708,27.7180066 19.58108,26.2690108 18.54808,24.435016 C17.66608,22.8680206 16.66508,21.0920257 16.66508,19.59303 Z" id="Fill-1" fill="#01A7DD"></path>
                <circle id="Oval" fill="#E3004A" cx="23" cy="8" r="8"></circle>
            </g>
        </g>
    </g>
</svg>