<?xml version="1.0" encoding="UTF-8"?>
<svg width="20px" height="23px" viewBox="0 0 20 23" version="1.1" xmlns="http://www.w3.org/2000/svg" xmlns:xlink="http://www.w3.org/1999/xlink">
    <title>Icons/notif</title>
    <g id="🗺-USER-JOURNEY-⎇" stroke="none" stroke-width="1" fill="none" fill-rule="evenodd">
        <g id="GRT---Limitations-fields" transform="translate(-1258.000000, -40.000000)" fill="#01A7DD">
            <g id="Fill-1" transform="translate(1258.000000, 39.000000)">
                <path d="M9.98308,19 L2.43708,19.003 C2.20208,18.985 2.06708,18.95 1.99808,18.926 C2.02008,18.462 2.70908,17.237 3.17408,16.411 C4.17708,14.631 5.31308,12.613 5.31308,10.593 C5.31308,9.001 5.65108,3.67125663 9.98308,3.66225663 C14.31508,3.67125663 14.65208,9.001 14.65208,10.593 C14.65208,12.613 15.78908,14.631 16.79208,16.411 C17.25708,17.238 17.94808,18.465 17.96908,18.927 C17.90508,18.952 17.78908,18.984 17.60408,19 L9.98308,19 Z M13.023215,22 C13.566215,22 14.023215,22.43 14.023215,23 C14.023215,23.57 13.566215,24 13.023215,24 C9.3534552,24 7.33921579,24 6.98049671,24 C6.4424181,24 6,23.5227414 6,23 C6,22.4772586 6.4424181,22 6.98049671,22 C7.33921579,22 9.3534552,22 13.023215,22 Z M16.66508,10.59303 C16.66508,6.72904116 15.28408,3.78548163 12.98308,2.49148536 C11.4230087,1.73308411 8.40164551,1.73308411 6.97308,2.49748535 C4.67808,3.79448161 3.30108,6.73404114 3.30108,10.59303 C3.30108,12.0920257 2.30008,13.8680206 1.41708,15.435016 C0.38508,17.2690108 -0.41192,18.7180066 0.23108,19.9060032 C0.58208,20.5540013 1.25908,20.9210002 2.36208,21 L17.67908,20.997 C18.70708,20.9210002 19.38408,20.5540013 19.73508,19.9060032 C20.37708,18.7180066 19.58108,17.2690108 18.54808,15.435016 C17.66608,13.8680206 16.66508,12.0920257 16.66508,10.59303 Z"></path>
            </g>
        </g>
    </g>
</svg>