<?xml version="1.0" encoding="UTF-8"?>
<svg width="16px" height="16px" viewBox="0 0 16 16" version="1.1" xmlns="http://www.w3.org/2000/svg" xmlns:xlink="http://www.w3.org/1999/xlink">
    <title>icon color</title>
    <defs>
        <path d="M747.12,101 C747.119285,103.621912 748.911976,105.932098 751.526189,106.678121 C754.140402,107.424144 756.953615,106.428353 758.44068,104.230604 L758.44068,104.230604 L755.52,104.230604 L755.52,103.153736 L760,103.153736 L760,107.461208 L758.88,107.461208 L758.88,105.477132 C756.918245,107.743146 753.69039,108.58491 750.806649,107.582512 C747.922907,106.580113 746.001132,103.94832 746,101 L746,101 Z M747.12,96.5228678 C749.081755,94.2568543 752.30961,93.41509 755.193351,94.4174884 C758.077093,95.4198868 759.998868,98.0516801 760,101 L760,101 L758.88,101 C758.880715,98.3780882 757.088024,96.0679018 754.473811,95.3218789 C751.859598,94.575856 749.046385,95.5716469 747.55932,97.7693962 L747.55932,97.7693962 L750.48,97.7693962 L750.48,98.8462642 L746,98.8462642 L746,94.5387925 L747.12,94.5387925 Z" id="path-1"></path>
    </defs>
    <g id="🗺-USER-JOURNEY-⎇" stroke="none" stroke-width="1" fill="none" fill-rule="evenodd">
        <g id="Upload-multi-files-1.0" transform="translate(-1135.000000, -679.000000)">
            <g id="Group-3" transform="translate(220.000000, 437.000000)">
                <g id="Group-8" transform="translate(0.000000, 119.000000)">
                    <g id="Group-27" transform="translate(170.000000, 30.000000)">
                        <mask id="mask-2" fill="white">
                            <use xlink:href="#path-1"></use>
                        </mask>
                        <use id="icon-color" stroke="#9F9F9F" stroke-width="0.7" fill="#9F9F9F" stroke-linejoin="round" transform="translate(753.000000, 101.000000) rotate(-90.000000) translate(-753.000000, -101.000000) " xlink:href="#path-1"></use>
                    </g>
                </g>
            </g>
        </g>
    </g>
</svg>