<?xml version="1.0" encoding="UTF-8"?>
<svg width="29px" height="30px" viewBox="0 0 29 30" version="1.1" xmlns="http://www.w3.org/2000/svg" xmlns:xlink="http://www.w3.org/1999/xlink">
    <title>wind icon copy</title>
    <g id="🗺-USER-JOURNEY-⎇" stroke="none" stroke-width="1" fill="none" fill-rule="evenodd" stroke-linecap="round" stroke-linejoin="round">
        <g id="GRT---Notifications-1" transform="translate(-192.000000, -863.000000)" stroke="#616161" stroke-width="1.4">
            <g id="Group-10" transform="translate(150.000000, 207.000000)">
                <g id="Table/Card-Copy-2" transform="translate(0.000000, 584.000000)">
                    <g id="Group" transform="translate(40.000000, 69.000000)">
                        <g id="Group-2" transform="translate(3.000000, 4.000000)">
                            <polygon id="Path" points="27 18.0266667 25.6153846 0 1.38461538 0 0 18.0266667"></polygon>
                            <path d="M6.3,0 L5.26153846,18.0266667 L6.3,0 Z" id="Path"></path>
                            <path d="M16.0733077,0 L16.4194615,18.0266667 L16.0733077,0 Z" id="Path"></path>
                            <path d="M10.9266923,0 L10.5805385,18.0266667 L10.9266923,0 Z" id="Path"></path>
                            <path d="M25.9615385,4.50666667 L1.03846154,4.50666667 L25.9615385,4.50666667 Z" id="Path"></path>
                            <path d="M26.3076923,9.01333333 L0.692307692,9.01333333 L26.3076923,9.01333333 Z" id="Path"></path>
                            <path d="M26.6538462,13.52 L0.346153846,13.52 L26.6538462,13.52 Z" id="Path"></path>
                            <path d="M21.6561538,27.52 L5.34615385,27.52 L21.6561538,27.52 Z" id="Path-Copy"></path>
                            <path d="M12.1153846,18.0266667 L12.1153846,27.0266667 L12.1153846,18.0266667 Z" id="Path"></path>
                            <path d="M14.8846154,18.0266667 L14.8846154,27.0266667 L14.8846154,18.0266667 Z" id="Path"></path>
                            <path d="M20.7,0 L21.7384615,18.0266667 L20.7,0 Z" id="Path"></path>
                        </g>
                    </g>
                </g>
            </g>
        </g>
    </g>
</svg>