<?xml version="1.0" encoding="UTF-8"?>
<svg width="28px" height="33px" viewBox="0 0 28 33" version="1.1" xmlns="http://www.w3.org/2000/svg" xmlns:xlink="http://www.w3.org/1999/xlink">
    <title>wind icon copy</title>
    <g id="🗺-USER-JOURNEY-⎇" stroke="none" stroke-width="1" fill="none" fill-rule="evenodd" stroke-linecap="round" stroke-linejoin="round">
        <g id="GRT---Limitations-0" transform="translate(-192.000000, -480.000000)" stroke="#FFFFFF">
            <g id="Group-3" transform="translate(150.000000, 339.000000)">
                <g id="Table/Card" transform="translate(0.000000, 72.000000)">
                    <g id="wind-icon-copy" transform="translate(40.000000, 69.000000)">
                        <g id="Group" transform="translate(3.000000, 1.000000)" stroke-width="1.3">
                            <path d="M14.6541865,15 C14.6541865,15.72 14.0717866,16.3043478 13.3541869,16.3043478 C12.6359371,16.3043478 12.0541873,15.72 12.0541873,15 C12.0541873,14.2793478 12.6359371,13.6956522 13.3541869,13.6956522 C14.0717866,13.6956522 14.6541865,14.2793478 14.6541865,15 Z" id="Path"></path>
                            <path d="M13.5394368,13.56 L13.5394368,1.0826087 C13.5394368,0.484565217 14.0223867,0 14.6184365,0 C15.1397363,0 15.5862861,0.374347826 15.6798861,0.888913043 L17.4972855,10.9219565 L15.845636,12.5543478 L13.5394368,13.56 Z" id="Path"></path>
                            <path d="M12.1081373,15.6521739 L1.61844087,21.7995652 C1.10234105,22.0982609 0.442591274,21.9208696 0.144891375,21.4030435 C-0.116408536,20.9504348 -0.0163085704,20.3745652 0.380841295,20.0367391 L8.13208867,13.44 L10.104188,13.9669565 L12.1081373,15.6521739 Z" id="Path"></path>
                            <path d="M14.7627364,15.5432609 L25.4604328,21.7995652 C25.9765326,22.0982609 26.1533326,22.7602174 25.8549827,23.2780435 C25.5949827,23.7313043 25.0483329,23.9321739 24.5575831,23.756087 L14.9882863,20.3191304 L14.3291866,18.0978261 L14.7627364,15.5432609 Z" id="Path"></path>
                            <path d="M12.0541873,15.6521739 L12.0541873,30 L12.0541873,15.6521739 Z" id="Path"></path>
                            <path d="M14.6541865,22.826087 L14.6541865,30 L14.6541865,22.826087 Z" id="Path"></path>
                        </g>
                        <path d="M24.6561538,31.52 L8.34615385,31.52 L24.6561538,31.52 Z" id="Path-Copy-2" stroke-width="1.4"></path>
                    </g>
                </g>
            </g>
        </g>
    </g>
</svg>
